<svg xmlns="http://www.w3.org/2000/svg" viewBox="0 0 1200 360" width="1200" height="360">
  <rect width="1200" height="360" rx="20" fill="#0f1117"/>
  <rect x="40" y="40" width="1120" height="56" rx="10" fill="#181b24"/>
  <circle cx="72" cy="68" r="8" fill="#5b8def"/>
  <text x="104" y="76" font-size="24" fill="#e6e9f0" font-family="system-ui, sans-serif" font-weight="600">🦖 Botasaurus Automation Studio</text>
  <g font-family="system-ui, sans-serif">
    <rect x="40" y="120" width="340" height="200" rx="12" fill="#181b24" stroke="#2a2f3e"/>
    <text x="60" y="156" font-size="18" fill="#e6e9f0" font-weight="600">Describe in English</text>
    <text x="60" y="188" font-size="14" fill="#8b92a5">"Fill out the lead form…"</text>
    <rect x="60" y="208" width="300" height="10" rx="5" fill="#1f2330"/>
    <rect x="60" y="230" width="240" height="10" rx="5" fill="#1f2330"/>
    <rect x="60" y="270" width="120" height="34" rx="8" fill="#5b8def"/>
    <text x="120" y="293" font-size="14" fill="#ffffff" text-anchor="middle">Run task</text>

    <rect x="430" y="120" width="340" height="200" rx="12" fill="#181b24" stroke="#2a2f3e"/>
    <text x="450" y="156" font-size="18" fill="#e6e9f0" font-weight="600">Record by hand</text>
    <circle cx="466" cy="186" r="7" fill="#e05b5b"/>
    <text x="484" y="191" font-size="14" fill="#8b92a5">recording…</text>
    <rect x="450" y="208" width="300" height="10" rx="5" fill="#1f2330"/>
    <rect x="450" y="230" width="280" height="10" rx="5" fill="#1f2330"/>
    <rect x="450" y="252" width="200" height="10" rx="5" fill="#1f2330"/>

    <rect x="820" y="120" width="340" height="200" rx="12" fill="#181b24" stroke="#2a2f3e"/>
    <text x="840" y="156" font-size="18" fill="#e6e9f0" font-weight="600">Replay forever</text>
    <text x="840" y="188" font-size="14" fill="#7fdd9f">✓ no AI · no tokens</text>
    <rect x="840" y="208" width="300" height="10" rx="5" fill="#1f2330"/>
    <rect x="840" y="230" width="260" height="10" rx="5" fill="#1f2330"/>
    <text x="840" y="290" font-size="13" fill="#8b92a5" font-family="monospace">test · schedule · scale</text>
  </g>
</svg>
